<?xml version="1.0" standalone="no"?>
<!DOCTYPE svg PUBLIC "-//W3C//DTD SVG 20010904//EN"
 "http://www.w3.org/TR/2001/REC-SVG-20010904/DTD/svg10.dtd">
<svg version="1.0" xmlns="http://www.w3.org/2000/svg"
 width="406.000000pt" height="406.000000pt" viewBox="0 0 406.000000 406.000000"
 preserveAspectRatio="xMidYMid meet">

<g transform="translate(0.000000,406.000000) scale(0.100000,-0.100000)"
fill="#000000" stroke="none">
<path d="M1555 3369 c-180 -128 -201 -154 -265 -336 -21 -59 -45 -112 -53
-117 -16 -10 -33 -4 -95 35 -48 31 -59 21 -67 -63 -8 -90 7 -189 35 -229 27
-37 43 -93 35 -120 -6 -19 -14 -20 -73 -18 l-67 4 3 -33 c3 -38 50 -137 95
-200 l31 -42 -28 -29 c-29 -31 -29 -57 -1 -81 20 -16 19 -46 -1 -54 -9 -3
-206 -6 -440 -6 l-423 0 -16 -29 c-10 -21 -12 -32 -4 -37 6 -3 70 -5 143 -3
72 2 317 2 544 1 l412 -2 0 -26 c0 -39 374 -656 444 -732 21 -23 37 -44 34
-47 -11 -12 -77 48 -108 100 -19 31 -45 71 -57 88 -12 18 -38 55 -57 82 -19
28 -64 102 -100 165 -36 63 -81 138 -101 165 -20 28 -48 76 -63 108 l-26 57
-66 0 c-36 1 -152 3 -259 6 -196 6 -468 -3 -456 -15 4 -3 175 -8 381 -11 l375
-5 19 -25 c11 -14 27 -41 36 -60 9 -19 37 -76 61 -127 24 -51 46 -101 48 -113
2 -11 6 -24 10 -29 10 -18 -16 -23 -34 -7 -10 9 -25 16 -34 16 -10 0 -26 5
-36 12 -15 9 -17 16 -10 31 8 14 1 34 -34 95 -25 42 -51 90 -59 105 l-14 28
-230 6 c-254 7 -440 7 -525 2 -51 -4 -59 -1 -78 21 -27 33 -23 54 14 60 23 5
14 8 -39 13 -38 4 -70 6 -72 4 -2 -2 16 -30 41 -61 44 -57 70 -120 63 -154 -2
-10 -20 13 -45 59 -53 96 -114 173 -152 192 -26 13 -30 13 -35 0 -3 -8 0 -28
8 -46 12 -29 122 -216 181 -307 12 -19 62 -100 110 -180 193 -320 224 -365
253 -382 28 -17 72 -18 524 -18 l495 0 147 -220 c99 -147 153 -220 165 -220
12 0 66 73 164 220 l147 220 501 0 501 0 37 38 c21 20 82 111 138 202 334 550
397 656 401 677 5 27 -16 82 -32 84 -6 1 -213 1 -461 0 -295 -1 -455 2 -465 8
-13 9 -13 14 3 42 23 41 22 51 -8 79 -14 13 -25 28 -25 33 0 5 15 27 34 48 46
54 95 149 98 190 l3 34 -65 0 -65 0 1 45 c0 28 11 67 29 105 27 54 29 70 30
166 0 128 -9 148 -59 123 -17 -9 -39 -23 -48 -31 -23 -21 -60 -12 -74 17 -7
14 -20 55 -29 93 -32 124 -131 253 -265 343 -71 48 -105 55 -115 24 -3 -11 5
-66 19 -124 47 -190 28 -305 -65 -398 -26 -26 -52 -48 -57 -48 -14 0 -32 -48
-32 -83 1 -18 7 -59 15 -92 19 -77 19 -129 0 -164 -17 -35 -71 -81 -92 -81 -9
0 -35 18 -59 40 -23 21 -55 42 -69 46 -39 10 -95 -10 -142 -51 -50 -42 -71
-44 -108 -7 -55 54 -66 114 -40 212 8 30 15 74 15 98 0 39 -5 48 -63 105 -71
70 -93 111 -109 198 -11 66 0 174 27 251 23 68 18 119 -14 117 -9 0 -47 -23
-86 -50z m75 -5 c0 -4 -9 -21 -20 -39 -28 -45 -53 -220 -44 -305 11 -114 59
-194 129 -217 26 -9 30 -15 29 -45 -1 -20 -12 -51 -25 -69 -54 -75 -96 -259
-86 -370 6 -71 31 -124 168 -364 50 -88 128 -226 174 -307 77 -137 83 -145 93
-123 6 13 76 138 155 277 256 449 251 438 255 544 4 83 1 102 -27 187 -18 52
-46 116 -62 141 -41 61 -38 116 5 127 76 20 136 137 136 264 0 71 -25 217 -44
253 -22 43 -20 59 4 37 44 -40 71 -120 77 -231 6 -111 22 -152 24 -62 1 51 1
52 11 21 7 -21 17 -33 29 -33 10 0 21 -5 25 -11 4 -8 9 -7 15 2 4 7 11 11 14
7 13 -12 21 -73 14 -103 -11 -48 -10 -225 1 -246 13 -23 53 -25 103 -4 20 8
39 15 42 15 14 0 1 -43 -35 -113 -47 -91 -50 -104 -12 -51 61 84 86 79 32 -6
-16 -25 -33 -61 -36 -78 -8 -42 10 -49 85 -33 114 25 133 25 129 5 -2 -12 -13
-20 -28 -21 -14 -1 -53 -9 -87 -17 -44 -12 -69 -13 -87 -6 -23 9 -26 7 -26
-15 0 -15 7 -26 20 -30 20 -6 28 -25 12 -25 -5 0 -28 -18 -52 -40 -43 -40 -44
-41 -22 -55 11 -9 47 -18 78 -21 32 -3 65 -9 74 -14 31 -17 -19 -23 -54 -6
-43 20 -45 20 -39 -4 6 -21 -14 -26 -80 -22 -21 2 -30 -3 -34 -18 -5 -19 -14
-24 -40 -21 -16 2 -73 -58 -73 -78 0 -22 -19 -41 -35 -34 -8 2 -23 0 -34 -7
-26 -13 -29 6 -6 36 17 22 20 70 5 79 -6 3 -7 17 -4 31 9 37 -2 29 -39 -28
-85 -132 -250 -418 -244 -424 6 -6 74 80 81 104 9 27 30 30 23 3 -8 -30 19
-15 44 25 20 33 49 56 77 60 20 4 14 -10 -18 -41 -16 -16 -30 -37 -30 -48 0
-12 -5 -17 -14 -14 -10 4 -16 -5 -20 -29 -4 -18 -20 -60 -37 -91 -31 -60 -37
-71 -80 -138 -100 -154 -169 -337 -169 -450 0 -45 -16 -81 -23 -55 -3 8 -12
60 -22 115 -20 125 -69 235 -199 450 -65 107 -94 162 -125 236 -17 42 -22 47
-57 51 -22 3 -40 2 -42 -2 -8 -21 -31 -44 -37 -38 -4 4 5 23 20 42 37 49 31
72 -20 69 -22 -1 -62 3 -88 9 -45 9 -47 12 -33 27 9 10 16 22 16 28 0 6 10 17
23 26 15 10 19 18 12 26 -14 14 -125 81 -135 81 -4 0 -13 7 -20 15 -11 13 -8
21 15 45 35 37 30 44 -76 107 -79 47 -99 72 -56 74 17 0 14 5 -18 20 -22 11
-53 18 -68 16 -20 -3 -31 1 -34 12 -4 9 -13 25 -22 35 -15 18 -15 19 9 13 14
-3 57 -17 95 -31 81 -30 123 -33 132 -10 3 9 -8 47 -25 85 -17 38 -28 69 -24
69 3 0 16 -10 29 -22 22 -21 24 -21 17 -3 -5 11 -21 44 -36 73 -39 74 -25 89
48 55 35 -17 36 -17 54 5 14 17 17 29 10 52 -7 23 -5 30 5 30 15 0 21 23 30
115 11 117 65 187 65 86 0 -53 19 -84 118 -183 25 -27 41 -48 35 -48 -6 0 -16
7 -23 15 -23 27 -30 16 -12 -19 14 -27 20 -32 31 -23 12 10 14 9 9 -3 -28 -79
-67 -227 -72 -275 -10 -94 9 -100 24 -8 15 98 44 193 78 262 l27 54 -24 16
c-115 81 -137 131 -135 316 2 128 14 178 60 248 21 33 44 49 44 31z m-120
-178 c0 -15 -18 -31 -26 -23 -7 7 7 37 17 37 5 0 9 -6 9 -14z m1080 2 c0 -7 9
-24 20 -38 33 -42 22 -45 -15 -4 -19 21 -35 42 -35 46 0 13 30 9 30 -4z m126
-103 c14 -34 18 -52 9 -44 -9 9 -35 79 -30 79 3 0 13 -16 21 -35z m-1219 -37
c-2 -13 -4 -3 -4 22 0 25 2 35 4 23 2 -13 2 -33 0 -45z m-136 25 c-12 -20 -14
-14 -5 12 4 9 9 14 11 11 3 -2 0 -13 -6 -23z m-190 -222 c16 -27 110 -98 154
-115 11 -5 15 -10 9 -12 -19 -8 -59 13 -108 55 -26 23 -53 41 -60 41 -8 0 -16
14 -18 30 -6 38 2 38 23 1z m1750 -5 c-6 -14 -15 -26 -21 -26 -5 0 -27 -15
-47 -34 -44 -39 -102 -71 -111 -60 -4 4 -2 9 5 11 35 12 133 85 153 112 26 37
35 36 21 -3z m84 -376 c-3 -5 -12 -10 -18 -10 -7 0 -6 4 3 10 19 12 23 12 15
0z m-995 -115 c12 -32 3 -55 -21 -55 -25 0 -34 25 -21 56 15 31 30 31 42 -1z
m-850 -20 c19 -19 29 -35 23 -35 -6 0 -23 16 -37 35 -15 19 -25 35 -23 35 1 0
18 -16 37 -35z m113 -142 c-18 -9 -33 -23 -35 -31 -2 -11 -7 -9 -22 7 -18 20
-18 21 5 30 13 5 38 10 54 10 l30 0 -32 -16z m777 -123 c0 -5 -4 -10 -10 -10
-5 0 -10 5 -10 10 0 6 5 10 10 10 6 0 10 -4 10 -10z m70 -113 c0 -17 -2 -17
-30 3 -19 14 -30 17 -30 9 0 -7 -10 -23 -21 -35 -17 -18 -26 -21 -40 -13 -43
22 0 116 47 105 15 -4 24 -2 24 6 0 6 11 -3 25 -22 14 -19 25 -42 25 -53z
m519 37 c25 -42 26 -45 6 -37 -27 10 -52 73 -29 73 1 0 11 -16 23 -36z m1189
-26 c-40 -50 -74 -104 -108 -170 -29 -55 -40 -60 -40 -19 0 43 15 76 63 140
l43 56 -311 0 c-500 0 -695 -4 -695 -15 0 -5 -20 -40 -44 -77 -45 -70 -129
-233 -123 -239 7 -8 75 97 127 195 42 81 61 107 80 111 14 4 104 5 200 2 96
-2 276 -3 398 -3 123 1 237 -1 253 -4 34 -8 37 -27 9 -55 -20 -20 -31 -21
-278 -19 -311 1 -529 -4 -538 -14 -4 -4 0 -13 10 -20 17 -12 16 -16 -13 -62
-17 -26 -28 -52 -25 -56 7 -12 481 -11 522 0 17 5 32 7 32 4 0 -3 -13 -22 -29
-42 -15 -20 -49 -67 -75 -105 -30 -46 -46 -63 -46 -49 0 11 18 48 41 83 22 34
38 64 37 66 -2 2 -120 4 -262 5 -281 1 -286 2 -248 56 11 15 24 39 27 53 l7
25 -19 -25 c-26 -35 -56 -106 -49 -118 3 -5 83 -13 178 -17 137 -6 177 -11
201 -25 16 -10 24 -21 18 -24 -21 -14 -163 -25 -308 -26 -124 0 -154 -3 -167
-16 -21 -20 -20 -23 4 -17 11 3 20 2 20 -1 0 -4 -23 -45 -51 -91 -28 -46 -48
-89 -44 -95 8 -13 664 -8 700 5 20 7 20 7 0 -8 -17 -13 -76 -15 -370 -18
l-350 -4 -3 22 c-2 12 4 35 13 52 21 41 36 81 30 81 -3 0 -21 -24 -40 -54 -19
-30 -39 -57 -45 -61 -5 -3 -18 -26 -29 -50 -18 -41 -23 -45 -55 -45 -19 0 -38
4 -41 10 -3 5 8 37 25 71 16 33 30 63 30 65 0 26 -96 -84 -142 -162 -21 -35
-55 -61 -66 -50 -3 4 10 23 30 44 19 20 68 91 107 157 40 66 96 158 125 205
154 246 206 338 206 363 l0 27 556 0 555 0 -33 -42z m-1727 -65 c-12 -20 -14
-14 -5 12 4 9 9 14 11 11 3 -2 0 -13 -6 -23z m329 7 c0 -5 -4 -10 -10 -10 -5
0 -10 5 -10 10 0 6 5 10 10 10 6 0 10 -4 10 -10z m81 -37 c7 -16 15 -31 17
-35 2 -5 0 -8 -5 -8 -8 0 -43 52 -43 64 0 16 18 3 31 -21z m-428 -8 c-3 -9 -8
-14 -10 -11 -3 3 -2 9 2 15 9 16 15 13 8 -4z m-849 -82 c45 -92 46 -89 -36
-96 -40 -3 -82 -9 -92 -13 -19 -7 -19 -8 0 -15 10 -4 31 -8 46 -8 18 -1 29 -8
33 -22 4 -11 5 -22 3 -23 -20 -15 -107 -26 -199 -26 -96 0 -119 3 -146 20 -20
12 -33 28 -33 40 0 17 7 20 47 20 64 0 51 6 -29 14 -74 7 -87 -3 -48 -39 20
-18 57 -102 48 -110 -3 -3 -33 35 -67 85 -34 49 -66 92 -71 95 -22 14 -8 23
22 14 46 -13 518 -12 518 1 0 6 -9 28 -20 50 -22 43 -25 60 -10 60 5 0 20 -21
34 -47z m406 22 c11 -13 8 -13 -21 -3 -44 15 -48 18 -17 18 14 0 31 -7 38 -15z
m845 5 c-28 -12 -57 -12 -50 0 3 6 21 10 38 9 27 0 29 -2 12 -9z m-1966 -293
l11 -32 -24 30 c-14 17 -25 36 -26 44 0 23 27 -6 39 -42z m938 21 c-3 -8 -6
-5 -6 6 -1 11 2 17 5 13 3 -3 4 -12 1 -19z m-70 -15 c23 -30 70 -127 76 -158
l5 -30 -341 -3 c-337 -3 -342 -3 -372 19 -16 11 -22 19 -13 16 9 -3 172 -8
362 -11 308 -4 346 -3 346 11 0 8 -20 49 -45 90 -25 40 -45 76 -45 78 0 11 14
4 27 -12z m-675 -155 c-1 -5 9 -23 23 -43 15 -19 29 -53 32 -77 l5 -43 -36 58
c-19 32 -48 75 -64 95 -34 44 -72 106 -72 117 0 5 26 -16 58 -46 32 -30 56
-57 54 -61z m2758 102 c0 -5 -34 -59 -75 -119 -41 -61 -75 -115 -75 -120 0 -5
-5 -13 -12 -17 -20 -13 -1 66 27 108 15 22 24 42 22 44 -4 4 103 113 111 114
1 0 2 -4 2 -10z m-1863 -111 c41 -26 78 -90 60 -108 -12 -12 -114 -15 -166 -5
-40 8 -45 50 -6 60 16 4 28 17 35 40 13 40 29 42 77 13z m-347 -65 c7 -7 6
-16 -3 -28 -11 -15 -28 -19 -93 -19 -158 0 -319 23 -297 43 13 13 46 15 220
15 100 0 166 -4 173 -11z m708 -102 c-4 -23 -6 -20 -17 21 -8 26 -17 50 -22
53 -5 3 -9 15 -9 27 1 16 8 9 26 -26 15 -28 24 -60 22 -75z m156 22 c-9 -33
-19 -53 -21 -47 -5 15 27 117 34 110 2 -3 -4 -31 -13 -63z m-37 -156 c-3 -7
-5 -2 -5 12 0 14 2 19 5 13 2 -7 2 -19 0 -25z"/>
<path d="M2526 2873 c-6 -14 -5 -15 5 -6 7 7 10 15 7 18 -3 3 -9 -2 -12 -12z"/>
<path d="M2490 2825 c-13 -14 -19 -25 -14 -25 8 1 50 50 41 50 -2 0 -14 -11
-27 -25z"/>
<path d="M2424 2780 c-12 -5 -25 -14 -29 -20 -4 -6 12 -49 35 -95 32 -64 47
-110 60 -187 14 -82 19 -97 25 -75 4 15 5 53 1 85 l-6 57 13 -40 c10 -32 14
-36 20 -22 8 22 -4 78 -38 176 l-26 74 20 21 c38 41 14 52 -27 14 l-24 -23 6
23 c8 24 3 26 -30 12z m85 -220 c0 -10 -3 -8 -9 5 -12 27 -12 43 0 25 5 -8 9
-22 9 -30z"/>
<path d="M1580 2194 c0 -5 7 -19 15 -30 8 -10 15 -14 15 -8 0 5 -7 19 -15 30
-8 10 -15 14 -15 8z"/>
<path d="M1660 2047 c0 -4 7 -23 14 -42 15 -36 10 -45 -13 -22 -11 10 -12 2
-9 -46 4 -48 10 -62 35 -87 18 -18 43 -31 59 -32 16 -1 42 -13 58 -27 l28 -26
-7 24 c-16 53 -163 284 -165 258z"/>
<path d="M1850 1713 c0 -16 44 -174 62 -224 6 -17 17 -27 31 -28 12 -1 40 -2
61 -4 24 -1 41 3 43 11 3 7 -4 12 -15 12 -11 0 -23 8 -27 18 -11 30 -140 232
-147 232 -5 0 -8 -7 -8 -17z"/>
<path d="M2556 1553 c-6 -14 -5 -15 5 -6 7 7 10 15 7 18 -3 3 -9 -2 -12 -12z"/>
<path d="M2512 1480 c-18 -29 -15 -38 4 -12 9 13 14 25 12 27 -2 2 -9 -5 -16
-15z"/>
<path d="M1642 3140 c0 -14 2 -19 5 -12 2 6 2 18 0 25 -3 6 -5 1 -5 -13z"/>
<path d="M1641 3094 c0 -11 3 -14 6 -6 3 7 2 16 -1 19 -3 4 -6 -2 -5 -13z"/>
<path d="M1220 2940 c-13 -8 -12 -10 3 -10 9 0 17 5 17 10 0 12 -1 12 -20 0z"/>
<path d="M3032 2840 c0 -14 2 -19 5 -12 2 6 2 18 0 25 -3 6 -5 1 -5 -13z"/>
<path d="M2252 2740 c0 -14 2 -19 5 -12 2 6 2 18 0 25 -3 6 -5 1 -5 -13z"/>
<path d="M1792 2570 c0 -19 2 -27 5 -17 2 9 2 25 0 35 -3 9 -5 1 -5 -18z"/>
<path d="M1868 2433 c7 -3 16 -2 19 1 4 3 -2 6 -13 5 -11 0 -14 -3 -6 -6z"/>
<path d="M1080 2116 c0 -9 5 -16 10 -16 6 0 10 4 10 9 0 6 -4 13 -10 16 -5 3
-10 -1 -10 -9z"/>
</g>
</svg>
