<svg xmlns="http://www.w3.org/2000/svg" enable-background="new 0 0 24 24" viewBox="0 0 24 24"><path fill="#DF0D12" d="M18.48,23.99h-0.041c-0.079,0-0.239-0.01-0.43-0.03c-1.07-0.13-2.479-0.26-3.62-0.31c-0.37-0.02-0.68-0.04-0.689-0.04c0,0-0.29-0.841-0.84-2.411c-0.531-1.53-1.311-3.77-2.32-6.681l-0.37-1.059L5.5,0h4.651l0.199,0.57L11.23,3.1L18.48,23.99L18.48,23.99z"/><path fill="#C20B10" d="M10.151,0H5.5l4.67,13.46l0.37,1.059c0.558,1.608,1.046,3.011,1.46,4.203V5.318L11.23,3.1l-0.881-2.529L10.151,0L10.151,0z"/><path fill="#AD080F" d="M10.17,13.46l-0.01,5.06c0,4.811-0.01,5.08-0.061,5.08c-0.179,0-1.699,0.101-2.21,0.15c-0.329,0.03-1,0.1-1.479,0.16c-0.49,0.06-0.891,0.1-0.9,0.09c0-0.01-0.01-5.41-0.01-12.01V0L10.17,13.46L10.17,13.46z"/><path fill="#97070D" d="M5.5,0v11.99c0,6.6,0.01,12,0.01,12.01h0.052c0.124-0.007,0.458-0.042,0.849-0.09c0.408-0.052,0.956-0.109,1.312-0.144V6.406L5.5,0L5.5,0z"/><path fill="#AD080F" d="M18.49,0.01h-4.63L13.849,5.32v5.329L18.48,23.99c0.02-0.01,0.02-5.42,0.02-12.01L18.49,0.01L18.49,0.01z"/><polygon fill="#97070D" points="16.083 .01 13.86 .01 13.849 5.32 13.849 10.649 16.083 17.084 16.083 .01"/></svg>